HIERARCHY
ROOT hips
{
  OFFSET 0 10.680822821525009 1.3929502295107734
  CHANNELS 6 Xposition Yposition Zposition Yrotation Xrotation Zrotation
  JOINT spine
  {
    OFFSET -7.042017322922631e-31 0.6058489940359625 0
    CHANNELS 3 Yrotation Xrotation Zrotation
    JOINT chest
    {
      OFFSET 0 1.2699794144455032 0
      CHANNELS 3 Yrotation Xrotation Zrotation
      JOINT upperChest
      {
        OFFSET 0 1.217799211677689 0
        CHANNELS 3 Yrotation Xrotation Zrotation
        JOINT neck
        {
          OFFSET 0 1.5248826104153006 0
          CHANNELS 3 Yrotation Xrotation Zrotation
          JOINT head
          {
            OFFSET 0 0.8197772727844447 0
            CHANNELS 3 Yrotation Xrotation Zrotation
            JOINT leftEye
            {
              OFFSET 0.2793952361220866 0.6769952096623495 0.1830357412467788
              CHANNELS 3 Yrotation Xrotation Zrotation
              End Site
              {
                OFFSET 0.2793952361220866 0.6769952096623495 0.1830357412467788
              }
            }
            JOINT rightEye
            {
              OFFSET -0.27939522230689573 0.676995205357064 0.18303631459760622
              CHANNELS 3 Yrotation Xrotation Zrotation
              End Site
              {
                OFFSET -0.27939522230689573 0.676995205357064 0.18303631459760622
              }
            }
          }
        }
        JOINT leftShoulder
        {
          OFFSET 0.41486978509200423 1.1670505408695453 0
          CHANNELS 3 Yrotation Xrotation Zrotation
          JOINT leftUpperArm
          {
            OFFSET 0.9737926108153417 0 0
            CHANNELS 3 Yrotation Xrotation Zrotation
            JOINT leftLowerArm
            {
              OFFSET 2.5269332222665284 0 0
              CHANNELS 3 Yrotation Xrotation Zrotation
              JOINT leftHand
              {
                OFFSET 2.4263782738425914 0 0
                CHANNELS 3 Yrotation Xrotation Zrotation
                JOINT leftIndexProximal
                {
                  OFFSET 0.724320348022514 0.08170607082582437 0.20360061616140124
                  CHANNELS 3 Yrotation Xrotation Zrotation
                  JOINT leftIndexIntermediate
                  {
                    OFFSET 0.36548960630744587 -0.010566596513783999 -0.01414783573280308
                    CHANNELS 3 Yrotation Xrotation Zrotation
                    JOINT leftIndexDistal
                    {
                      OFFSET 0.22502819650693362 -0.007863819831430696 -0.007567681939621526
                      CHANNELS 3 Yrotation Xrotation Zrotation
                      End Site
                      {
                        OFFSET 0.22502819650693362 -0.007863819831430696 -0.007567681939621526
                      }
                    }
                  }
                }
                JOINT leftLittleProximal
                {
                  OFFSET 0.6720322998298205 0.08170601055037707 -0.3230036039466837
                  CHANNELS 3 Yrotation Xrotation Zrotation
                  JOINT leftLittleIntermediate
                  {
                    OFFSET 0.34583592281688713 5.476543019078406e-8 1.3869203337180114e-7
                    CHANNELS 3 Yrotation Xrotation Zrotation
                    JOINT leftLittleDistal
                    {
                      OFFSET 0.19925728062053938 0.003098047439490381 0.0038303983709246925
                      CHANNELS 3 Yrotation Xrotation Zrotation
                      End Site
                      {
                        OFFSET 0.19925728062053938 0.003098047439490381 0.0038303983709246925
                      }
                    }
                  }
                }
                JOINT leftMiddleProximal
                {
                  OFFSET 0.7300436596551069 0.0817073395107144 0.022661722987926763
                  CHANNELS 3 Yrotation Xrotation Zrotation
                  JOINT leftMiddleIntermediate
                  {
                    OFFSET 0.40758254347686607 -0.0000012383587111308714 2.408460318820138e-7
                    CHANNELS 3 Yrotation Xrotation Zrotation
                    JOINT leftMiddleDistal
                    {
                      OFFSET 0.2514490105498507 0.0000013869132886590307 9.738618134136345e-8
                      CHANNELS 3 Yrotation Xrotation Zrotation
                      End Site
                      {
                        OFFSET 0.2514490105498507 0.0000013869132886590307 9.738618134136345e-8
                      }
                    }
                  }
                }
                JOINT leftRingProximal
                {
                  OFFSET 0.7217261161191838 0.08170601902187746 -0.15043395722184966
                  CHANNELS 3 Yrotation Xrotation Zrotation
                  JOINT leftRingIntermediate
                  {
                    OFFSET 0.37808807487521556 0.0000013754022405443322 2.2046919317952884e-7
                    CHANNELS 3 Yrotation Xrotation Zrotation
                    JOINT leftRingDistal
                    {
                      OFFSET 0.21812105442344254 -0.002713483731960231 -0.004991354517454624
                      CHANNELS 3 Yrotation Xrotation Zrotation
                      End Site
                      {
                        OFFSET 0.21812105442344254 -0.002713483731960231 -0.004991354517454624
                      }
                    }
                  }
                }
                JOINT leftThumbProximal
                {
                  OFFSET 0.10793587079521427 -0.1652791240518252 -0.07775251827190094
                  CHANNELS 3 Yrotation Xrotation Zrotation
                  JOINT leftThumbIntermediate
                  {
                    OFFSET 0.40355819082296684 -0.017484006740276614 0.3177776014416309
                    CHANNELS 3 Yrotation Xrotation Zrotation
                    JOINT leftThumbDistal
                    {
                      OFFSET 0.2318764658022603 -0.018510186824293617 0.21396001800186287
                      CHANNELS 3 Yrotation Xrotation Zrotation
                      End Site
                      {
                        OFFSET 0.2318764658022603 -0.018510186824293617 0.21396001800186287
                      }
                    }
                  }
                }
              }
            }
          }
        }
        JOINT rightShoulder
        {
          OFFSET -0.4148697850920044 1.1670505408695453 0
          CHANNELS 3 Yrotation Xrotation Zrotation
          JOINT rightUpperArm
          {
            OFFSET -0.9737926108153414 0 0
            CHANNELS 3 Yrotation Xrotation Zrotation
            JOINT rightLowerArm
            {
              OFFSET -2.5269332222665293 0 0
              CHANNELS 3 Yrotation Xrotation Zrotation
              JOINT rightHand
              {
                OFFSET -2.42637827384259 0 0
                CHANNELS 3 Yrotation Xrotation Zrotation
                JOINT rightIndexProximal
                {
                  OFFSET -0.724320348022514 0.08170607082582437 0.20360061616140124
                  CHANNELS 3 Yrotation Xrotation Zrotation
                  JOINT rightIndexIntermediate
                  {
                    OFFSET -0.36548960630744587 -0.010566596513783999 -0.01414783573280308
                    CHANNELS 3 Yrotation Xrotation Zrotation
                    JOINT rightIndexDistal
                    {
                      OFFSET -0.22502819650693362 -0.007863819831430696 -0.007567681939621526
                      CHANNELS 3 Yrotation Xrotation Zrotation
                      End Site
                      {
                        OFFSET -0.22502819650693362 -0.007863819831430696 -0.007567681939621526
                      }
                    }
                  }
                }
                JOINT rightLittleProximal
                {
                  OFFSET -0.6720322998298205 0.08170601055037707 -0.3230036039466837
                  CHANNELS 3 Yrotation Xrotation Zrotation
                  JOINT rightLittleIntermediate
                  {
                    OFFSET -0.34583592281688713 5.476543019078406e-8 1.3869203337180114e-7
                    CHANNELS 3 Yrotation Xrotation Zrotation
                    JOINT rightLittleDistal
                    {
                      OFFSET -0.19925728062053938 0.003098047439490381 0.0038303983709246925
                      CHANNELS 3 Yrotation Xrotation Zrotation
                      End Site
                      {
                        OFFSET -0.19925728062053938 0.003098047439490381 0.0038303983709246925
                      }
                    }
                  }
                }
                JOINT rightMiddleProximal
                {
                  OFFSET -0.7300436596551069 0.0817073395107144 0.022661722987926763
                  CHANNELS 3 Yrotation Xrotation Zrotation
                  JOINT rightMiddleIntermediate
                  {
                    OFFSET -0.40758254347686607 -0.0000012383587111308714 2.408460318820138e-7
                    CHANNELS 3 Yrotation Xrotation Zrotation
                    JOINT rightMiddleDistal
                    {
                      OFFSET -0.2514490105498507 0.0000013869132886590307 9.738618134136345e-8
                      CHANNELS 3 Yrotation Xrotation Zrotation
                      End Site
                      {
                        OFFSET -0.2514490105498507 0.0000013869132886590307 9.738618134136345e-8
                      }
                    }
                  }
                }
                JOINT rightRingProximal
                {
                  OFFSET -0.7217261161191838 0.08170601902187746 -0.15043395722184966
                  CHANNELS 3 Yrotation Xrotation Zrotation
                  JOINT rightRingIntermediate
                  {
                    OFFSET -0.37808807487521556 0.0000013754022405443322 2.2046919317952884e-7
                    CHANNELS 3 Yrotation Xrotation Zrotation
                    JOINT rightRingDistal
                    {
                      OFFSET -0.21812105442344254 -0.002713483731960231 -0.004991354517454624
                      CHANNELS 3 Yrotation Xrotation Zrotation
                      End Site
                      {
                        OFFSET -0.21812105442344254 -0.002713483731960231 -0.004991354517454624
                      }
                    }
                  }
                }
                JOINT rightThumbProximal
                {
                  OFFSET -0.10793587079521427 -0.1652791240518252 -0.07775251827190094
                  CHANNELS 3 Yrotation Xrotation Zrotation
                  JOINT rightThumbIntermediate
                  {
                    OFFSET -0.40355819082296684 -0.017484006740276614 0.3177776014416309
                    CHANNELS 3 Yrotation Xrotation Zrotation
                    JOINT rightThumbDistal
                    {
                      OFFSET -0.2318764658022603 -0.018510186824293617 0.21396001800186287
                      CHANNELS 3 Yrotation Xrotation Zrotation
                      End Site
                      {
                        OFFSET -0.2318764658022603 -0.018510186824293617 0.21396001800186287
                      }
                    }
                  }
                }
              }
            }
          }
        }
      }
    }
  }
  JOINT leftUpperLeg
  {
    OFFSET 0.8486251390888677 -0.4421577294694363 0
    CHANNELS 3 Yrotation Xrotation Zrotation
    JOINT leftLowerLeg
    {
      OFFSET 0 -4.10147812638609 0
      CHANNELS 3 Yrotation Xrotation Zrotation
      JOINT leftFoot
      {
        OFFSET -0.0002543926476658853 -4.77292286812444 0.007402811231737388
        CHANNELS 3 Yrotation Xrotation Zrotation
        JOINT leftToes
        {
          OFFSET 0 -0.7027875951174846 1.2062924140498823
          CHANNELS 3 Yrotation Xrotation Zrotation
          End Site
          {
            OFFSET 0 -0.7027875951174846 1.2062924140498823
          }
        }
      }
    }
  }
  JOINT rightUpperLeg
  {
    OFFSET -0.8486251390888677 -0.4421577294694363 0
    CHANNELS 3 Yrotation Xrotation Zrotation
    JOINT rightLowerLeg
    {
      OFFSET 0 -4.10147812638609 0
      CHANNELS 3 Yrotation Xrotation Zrotation
      JOINT rightFoot
      {
        OFFSET 0.0002543926476658853 -4.77292286812444 0.007402811231737388
        CHANNELS 3 Yrotation Xrotation Zrotation
        JOINT rightToes
        {
          OFFSET 0 -0.7027875951174846 1.2062924140498823
          CHANNELS 3 Yrotation Xrotation Zrotation
          End Site
          {
            OFFSET 0 -0.7027875951174846 1.2062924140498823
          }
        }
      }
    }
  }
}
MOTION
Frames: 4
Frame Time: 0.03333333333333333
0.03526649624109268 -0.006579848197372229 0.24886108934879303 -1.5822041909489042 -2.1315063764753606 -0.3003409617179192 -0.2910732267037537 0.19173103825156668 -0.5976289095726199 -1.185609329175516 0.7588088675161565 -1.4272893448634163 0 0 0 0.5681923591524568 3.224595919648809 4.360386195472241 5.934532946707428 3.4913786574391485 0.7592184843310229 0 0 0 0 0 0 -3.641292167726928 0.9992978392703474 -9.63574226785676 -42.25201720191288 13.912202004667773 -57.428875359779504 -16.420648041916024 -3.407533448523166 0.7051174757437385 10.663347402063279 -20.011465366023717 7.997285652405181 2.041557396349558 0.34782397034750745 -19.382651231069197 2.057965371353444 0.3518198388930059 -19.38285627678998 1.7680053443066024 0.2610419819944084 -16.736598578741557 7.422668943031836 4.8292973070572724 -44.37715641560712 0.20227271486656473 1.9770862176080024 -45.46099641491294 4.097545213158042 1.7481892161461932 -42.36288350104812 2.9418693784202663 0.7469716613186667 -28.522953429589133 2.9506018344673675 0.7497744657560471 -28.554952917571008 2.69552709121403 0.6197845729958964 -25.8944519086032 3.7823823703153785 1.2959150893493507 -37.80756129898632 3.781655755541151 1.2959455128172654 -37.807626910335884 3.5526206548748847 1.1265234927098264 -35.16495147374882 10.194263945058035 -0.9127516622416205 11.442128390771456 24.803106543202887 5.391153702206475 0.12378585973869204 3.600673651310149 -0.5879587124628108 4.951707544929131 -5.707191993972068 0.21572661850799257 9.714119676486483 21.688780918518315 -63.28586064824971 32.5502862372297 74.00781484148916 -11.02011728382196 -9.413806683770407 14.116730751851097 -0.6739883021451983 -38.200671871258656 -1.1563486904760147 0.10819969896430942 10.518521687453521 -1.1087472750381597 0.10282470449752996 10.517833601703648 -0.581446127807386 0.026198332062716972 5.259487330638425 -1.0792741195707438 0.09387526919109955 10.517044618084073 -1.0435110754051893 0.07618686062021789 10.517183124287076 -0.6286556898769101 0.0171221939416393 5.260128273397559 -1.1943957233176048 0.11525926651748226 10.518947537940068 -1.0411480319033801 0.09744588228893489 10.51700432534713 -0.6082547166325345 0.025962568782480905 5.259834470638133 -1.1202693993675745 0.10150402795904209 10.518013813718031 -1.1631393221985162 0.10612097661338087 10.518507849153767 -0.5841581710109646 0.028107877078360356 5.259513574152953 -8.093962518580113 -1.4881027698593803 -12.098653431622761 -17.34795832633919 5.006267194828923 -7.3491162236657 -3.8371523310645563 -0.7979951453767309 -5.024738876004585 5.287513328146538 -1.4386133265846508 0.5901624760865223 -4.677193445819497 6.2954999581846565 -0.16548832912915398 0.05958721912186273 -2.3319117313646625 -0.432633889497298 0.002385268690296086 -0.33267298287154184 0.22498855877743498 -7.914835811602661 -1.1691490124384927 -0.1981363122780794 5.724680895036766 5.5655751600343395 -0.9667177537743081 -0.1365395541222643 -1.743556410727317 2.279345683534321 -0.003987261933409561 -0.34194541884903934 -0.4546110505289109
0.030806628987193108 -0.006154509452255041 0.24302378296852112 -1.8920833257029253 -2.132041849699063 -0.26587846678718163 -0.24216944396513188 0.19730689264828385 -0.5664760719587433 -0.9875881456061963 0.7828535229965048 -1.3846846896520248 0 0 0 0.5870401105880322 3.232251477984123 4.411998839457777 6.019504108330357 3.5493228378123156 0.8323210776554842 0 0 0 0 0 0 -3.567866087455223 0.9988024685297061 -9.63452569682315 -42.20655397698663 14.160420298700782 -57.5595740759253 -16.027923344576372 -3.3290827547358446 0.6769849848593573 11.130175152381252 -19.55210829045232 7.614239118713757 2.041557396349558 0.34782397034750745 -19.382651231069197 2.057965371353444 0.3518198388930059 -19.38285627678998 1.7680053443066024 0.2610419819944084 -16.736598578741557 7.422668943031836 4.8292973070572724 -44.37715641560712 0.20227271486656473 1.9770862176080024 -45.46099641491294 4.097545213158042 1.7481892161461932 -42.36288350104812 2.9418693784202663 0.7469716613186667 -28.522953429589133 2.9506018344673675 0.7497744657560471 -28.554952917571008 2.69552709121403 0.6197845729958964 -25.8944519086032 3.7823823703153785 1.2959150893493507 -37.80756129898632 3.781655755541151 1.2959455128172654 -37.807626910335884 3.5526206548748847 1.1265234927098264 -35.16495147374882 10.194263945058035 -0.9127516622416205 11.442128390771456 24.803106543202887 5.391153702206475 0.12378585973869204 3.600673651310149 -0.5879587124628108 4.951707544929131 -5.7381900029842745 0.20701326553908186 9.715861428456721 22.677280338449822 -62.55742355670391 32.154164154060254 76.3634873079744 -11.11489696788223 -9.895329551785936 14.265375318056664 2.0972270777205897 -35.01246757552336 -1.1541361514217832 0.10773101642106195 10.497514740147196 -1.1065230686403469 0.10241520598552781 10.496835675590935 -0.5803112756164096 0.02609377979822479 5.2490182511743795 -1.0770625699170746 0.09343777631397791 10.496042500716612 -1.0412689027735866 0.07582990288070732 10.496181855827368 -0.6275273993437746 0.017039701394457783 5.249655368801853 -1.192185742908729 0.11477662997082784 10.497941425964388 -1.0389219703534271 0.09704700933905387 10.496006402685516 -0.6071197930565457 0.025858483425694502 5.249364966265683 -1.1180543691405 0.10104856568766303 10.497006871358494 -1.160916433041324 0.10570497469349155 10.497509298306818 -0.583023673622853 0.02799953452368547 5.249044069406114 -8.119282665425343 -1.4854390598198346 -12.101844234485714 -17.37245764282539 5.010537854690659 -7.354219888364412 -3.849105549697661 -0.7949467188441158 -5.026318262955721 5.513703924990547 -1.375442347349867 0.5462789331938338 -4.5935127611822875 6.160607107864958 -0.06507223094572022 0.06222955636415222 -2.248602887144392 -0.49560875022773876 0.0023181352112324866 -0.3450722876231522 0.2153833589874456 -7.6485124002330185 -1.256842581469478 -0.2443875707991615 5.784205664598787 5.60168009496476 -0.8555074598433214 -0.13427375689787882 -1.7119739847773972 2.2221774903336726 -0.003947180375282814 -0.3291087386254842 -0.4460755589393644
0.020775483921170235 -0.005140753653915198 0.22996200621128082 -2.2929090610649454 -2.0802741697167764 -0.2406518180715951 -0.16628298373215825 0.19771650632908452 -0.5123979256675779 -0.679105004438346 0.7864993182780203 -1.2774881913010228 0 0 0 0.5865491805632437 3.2936143411810797 4.520199972792531 6.017488958133048 3.5871019224858824 1.1635733561197215 0 0 0 0 0 0 -3.4527180002832103 1.006403178141033 -9.633027380579223 -41.860920699252596 14.529728153197748 -57.83849863903115 -15.480450391472841 -3.2194865452946257 0.6386699579100222 12.201556561319109 -19.214327211881606 7.096072246626177 2.041557396349558 0.34782397034750745 -19.382651231069197 2.057965371353444 0.3518198388930059 -19.38285627678998 1.7680053443066024 0.2610419819944084 -16.736598578741557 7.422668943031836 4.8292973070572724 -44.37715641560712 0.20227271486656473 1.9770862176080024 -45.46099641491294 4.097545213158042 1.7481892161461932 -42.36288350104812 2.9418693784202663 0.7469716613186667 -28.522953429589133 2.9506018344673675 0.7497744657560471 -28.554952917571008 2.69552709121403 0.6197845729958964 -25.8944519086032 3.7823823703153785 1.2959150893493507 -37.80756129898632 3.781655755541151 1.2959455128172654 -37.807626910335884 3.5526206548748847 1.1265234927098264 -35.16495147374882 10.194263945058035 -0.9127516622416205 11.442128390771456 24.803106543202887 5.391153702206475 0.12378585973869204 3.600673651310149 -0.5879587124628108 4.951707544929131 -5.747053878673069 0.2103190456600882 9.71576491729835 24.30457647193871 -61.270681364212344 31.17050514578625 81.46602383146018 -11.252961554019004 -10.948916227448223 14.348006189416974 8.411550908558363 -25.17824195023098 -1.1521307485565861 0.10736538721292664 10.478942381043556 -1.1045550789162255 0.10204229974163903 10.478243389251128 -0.5792845082485065 0.026006916658373787 5.239722659428857 -1.0750590911961362 0.0930976404467884 10.477466573526666 -1.03928977329639 0.07549863174699295 10.477586846111398 -0.6264951366410344 0.016974767903735755 5.240365729071088 -1.1901827936583724 0.11439868763418241 10.479368005242437 -1.0369519544616241 0.09668350801957756 10.477413901047727 -0.6060929363410861 0.025772033832656693 5.240069686569124 -1.1160468999931787 0.10069463594214786 10.478433458727034 -1.1589492288635503 0.10532629875881737 10.478916792272152 -0.5819972263538179 0.027909304645761253 5.239748477488357 -8.11198993685968 -1.4862241552186832 -12.100924908283456 -17.365479571219893 5.009330274148395 -7.352731616494715 -3.845705535778279 -0.7958093267850546 -5.025872295486791 5.874680401436599 -1.3572437900727246 0.49503061382624847 -4.546243649016834 5.929591494550513 0.1318784874746639 0.06823171851649902 -2.0826139860806863 -0.6348761185768818 0.00224151983995557 -0.35476202549050784 0.19982850775301042 -7.1239193586997045 -1.3726830112448127 -0.2523751945340415 5.700036636222226 5.494255799825289 -0.7278024626717706 -0.13003082395470902 -1.5791733929884262 2.1433981664005075 -0.003773005833764465 -0.3068779179408984 -0.4101417161645615
0.006409702356904745 -0.004622908500106604 0.21796979010105133 -2.334208934007225 -2.0425851267223445 -0.23042737137148117 -0.1480637036774596 0.2107425335877271 -0.4961332993418988 -0.6032022760589824 0.8379254061079655 -1.2876854492813041 0 0 0 0.5279505905504536 3.340033439845189 4.686605774719373 5.8290185880943985 3.4903122364439985 1.703871795322825 0 0 0 0 0 0 -3.4132303371869632 1.0223362375805716 -9.633299151620342 -41.223073508783045 14.850683049754844 -58.13907705222947 -15.438814575055 -3.211115136641815 0.635821749360949 13.170387967172404 -19.419559811742264 6.784261666477138 2.041557396349558 0.34782397034750745 -19.382651231069197 2.057965371353444 0.3518198388930059 -19.38285627678998 1.7680053443066024 0.2610419819944084 -16.736598578741557 7.422668943031836 4.8292973070572724 -44.37715641560712 0.20227271486656473 1.9770862176080024 -45.46099641491294 4.097545213158042 1.7481892161461932 -42.36288350104812 2.9418693784202663 0.7469716613186667 -28.522953429589133 2.9506018344673675 0.7497744657560471 -28.554952917571008 2.69552709121403 0.6197845729958964 -25.8944519086032 3.7823823703153785 1.2959150893493507 -37.80756129898632 3.781655755541151 1.2959455128172654 -37.807626910335884 3.5526206548748847 1.1265234927098264 -35.16495147374882 10.194263945058035 -0.9127516622416205 11.442128390771456 24.803106543202887 5.391153702206475 0.12378585973869204 3.600673651310149 -0.5879587124628108 4.951707544929131 -5.7623575547245585 0.21557999518588306 9.715691173447388 27.767159910448182 -58.744917521606645 28.374668187891672 86.2113480830073 -11.298302108054495 -11.93611689926372 19.072281865949897 11.732336746954575 -13.75995329080049 -1.1521842740847166 0.10738390346139452 10.479363002064922 -1.104576952835011 0.10206713258794589 10.478678063860198 -0.579318070512363 0.026002137526494527 5.239926879742067 -1.0751089856014557 0.09311140089489524 10.47788657327454 -1.0393167694700893 0.07552044301455331 10.47802761563153 -0.6265322202188821 0.016977265858771344 5.240565698365902 -1.1902361431043502 0.11441748403208567 10.479791144990664 -1.0369739973683378 0.09670812741814047 10.477848794049969 -0.6061266051578224 0.02576724636315218 5.240274020095569 -1.1161003575076187 0.10071287871190766 10.478854298078645 -1.158971384849504 0.10535127835029376 10.479351685364437 -0.5820308419615778 0.027904598884988762 5.239953122909088 -8.114149046327324 -1.4859898222549466 -12.101206217765037 -17.36760524110408 5.009703946810248 -7.353199912327579 -3.8467601250334282 -0.7955605878645055 -5.026019491686211 6.099306489384744 -1.3700850876831239 0.5285230297025533 -4.730379076381818 5.728396248595373 0.2096971934249812 0.07378585955035247 -1.9383300195702562 -0.7511886457274394 0.001661418784598498 -0.35745007701247294 0.14183617296839585 -6.692372988692944 -1.4216201789091767 -0.21451877376176548 5.368267092163648 5.387458027995208 -0.6590710650716566 -0.12748157946902805 -1.5042938107124517 2.064125991951883 -0.0034889294373828135 -0.27981077723913206 -0.3608890222506954
